<svg width="25" height="25" viewBox="0 0 25 25" fill="none" xmlns="http://www.w3.org/2000/svg">
  <path
    d="M20.3563 10.6187C20.3563 4.51875 17.075 2.44375 14.0063 1.98125C14.0063 1.95 14.0125 1.91875 14.0125 1.88125C14.0125 1.1125 13.3313 0.5 12.5 0.5C11.6687 0.5 11.0125 1.1125 11.0125 1.88125C11.0125 1.91875 11.0125 1.95 11.0188 1.98125C7.94375 2.45 4.64375 4.53125 4.64375 10.6313C4.64375 17.7438 2.875 18.5063 0.5 20.5063H24.5C22.1375 18.5 20.3563 17.7312 20.3563 10.6187Z"
    fill="#999999" />
  <path
    d="M12.5125 24.5C14.1875 24.5 15.5625 23.2563 15.7437 21.8125H9.28125C9.45625 23.2563 10.8375 24.5 12.5125 24.5Z"
    fill="#999999" />
</svg>