<svg xmlns="http://www.w3.org/2000/svg" width="1em" height="1em" viewBox="0 0 24 24"><path fill="white" d="M15.35 20.3q-.5.2-.925-.125t-.425-.9q0-.275.163-.487t.412-.313q2-.8 3.213-2.55T19 11.975q0-2.2-1.213-3.95t-3.212-2.55q-.275-.1-.425-.325t-.15-.5q0-.55.425-.875t.925-.125q2.55 1.025 4.1 3.275t1.55 5.05q0 2.8-1.55 5.05t-4.1 3.275ZM4 15q-.425 0-.713-.288T3 14v-4q0-.425.288-.713T4 9h3l3.3-3.3q.475-.475 1.088-.213t.612.938v11.15q0 .675-.613.938T10.3 18.3L7 15H4Zm10 1V7.95q1.125.525 1.813 1.625T16.5 12q0 1.325-.688 2.4T14 16Z"/></svg>